<?xml version="1.0" encoding="utf-8"?>
<!-- Generator: Adobe Illustrator 26.3.1, SVG Export Plug-In . SVG Version: 6.00 Build 0)  -->
<svg version="1.1" id="Capa_1" xmlns="http://www.w3.org/2000/svg" xmlns:xlink="http://www.w3.org/1999/xlink" x="0px" y="0px"
	 viewBox="0 0 841.89 595.28" style="enable-background:new 0 0 841.89 595.28;" xml:space="preserve">
<style type="text/css">
	.st0{fill:#878787;}
	.st1{fill:#FFFFFF;}
	.st2{fill-rule:evenodd;clip-rule:evenodd;fill:#343434;}
	.st3{fill:#676767;}
	.st4{fill:#89C059;}
	.st5{fill:#FDCC68;}
	.st6{fill:#EE7262;}
	.st7{fill:#009FE3;stroke:#B2B2B2;stroke-width:0.5;stroke-miterlimit:10;}
	.st8{fill:#009FE3;stroke:#000000;stroke-miterlimit:10;}
	.st9{fill:#F6F6F6;}
	.st10{fill:#DADADA;}
	.st11{fill:#009FE3;}
	.st12{fill:#DADADA;stroke:#B2B2B2;stroke-width:0.25;stroke-miterlimit:10;}
	.st13{fill:#009FE3;stroke:#B2B2B2;stroke-width:0.25;stroke-miterlimit:10;}
	.st14{fill:#DBDBDB;}
	.st15{fill:#EBEBEB;}
	.st16{fill:#E4E3E1;}
	.st17{fill:#C7483C;}
	.st18{fill:#C1E3F7;}
	.st19{fill:#95CFF3;}
	.st20{fill:#CCCCCB;}
	.st21{fill:#F8BA63;}
	.st22{fill:#A93D33;}
	.st23{fill:#5CABE0;}
	.st24{opacity:0.28;fill:#BE1622;}
	.st25{fill:#020203;}
	.st26{fill:#706F6F;}
	.st27{fill:none;stroke:#020203;stroke-width:0.75;stroke-linecap:round;stroke-linejoin:round;}
	.st28{fill:#E30613;}
	.st29{fill:none;}
	.st30{font-family:'Arial-BoldMT';}
	.st31{font-size:12px;}
</style>
<polygon class="st0" points="428.7,-0.16 370.91,234.26 524.83,236.02 480.39,-0.18 "/>
<rect x="-0.06" y="169.15" class="st0" width="841.79" height="139.4"/>
<polygon class="st0" points="403.85,206.17 304.79,595.79 581.55,595.79 496.79,205.15 "/>
<rect x="443.68" y="264.38" class="st1" width="12.26" height="62.3"/>
<rect x="442.66" y="491.11" class="st1" width="16.34" height="93.96"/>
<rect x="442.66" y="364.47" class="st1" width="13.28" height="68.43"/>
<rect x="61.47" y="198.77" transform="matrix(6.123234e-17 -1 1 6.123234e-17 -164.8723 301.0851)" class="st1" width="13.28" height="68.43"/>
<path class="st2" d="M306.94,154.77"/>
<path class="st2" d="M312.3,154.77"/>
<rect x="748.91" y="219.66" transform="matrix(6.123234e-17 -1 1 6.123234e-17 477.8085 1037.3829)" class="st1" width="17.36" height="120.26"/>
<rect x="748.83" y="191.62" transform="matrix(6.123234e-17 -1 1 6.123234e-17 505.766 1009.2553)" class="st1" width="17.36" height="120.26"/>
<rect x="749.09" y="164.13" transform="matrix(6.123234e-17 -1 1 6.123234e-17 533.5106 982.0213)" class="st1" width="17.36" height="120.26"/>
<rect x="749.17" y="135.7" transform="matrix(6.123234e-17 -1 1 6.123234e-17 562.0213 953.6808)" class="st1" width="17.36" height="120.26"/>
<g>
	<path class="st2" d="M565.45,166.85h-0.6c-1.25,0-2.27-1.02-2.27-2.27V81.82c0-1.25,1.02-2.27,2.27-2.27h0.6
		c1.25,0,2.27,1.02,2.27,2.27v82.75C567.72,165.83,566.7,166.85,565.45,166.85z"/>
	<g>
		<path class="st3" d="M575.7,22.85H558.3c-1.92,0-3.48,1.63-3.48,3.63v50.82c0,0.96,0.37,1.89,1.02,2.57
			c0.65,0.68,1.54,1.06,2.46,1.06h17.41c0.92,0,1.81-0.38,2.46-1.06c0.65-0.68,1.02-1.6,1.02-2.57V26.48c0-0.96-0.37-1.89-1.02-2.57
			C577.51,23.23,576.63,22.85,575.7,22.85z"/>
		<path class="st2" d="M579.19,71.86h1.74c0,0,2.67-9.08,5.22-9.08v-1.82h-6.96V71.86z M579.19,55.52h1.74c0,0,2.67-9.08,5.22-9.08
			v-1.82h-6.96V55.52z M579.19,28.3v10.89h1.74c0,0,2.67-9.08,5.22-9.08V28.3H579.19z M547.85,62.78c2.56,0,5.22,9.08,5.22,9.08
			h1.74V60.97h-6.96V62.78z M547.85,46.45c2.56,0,5.22,9.08,5.22,9.08h1.74V44.63h-6.96V46.45z M547.85,30.11
			c2.56,0,5.22,9.08,5.22,9.08h1.74V28.3h-6.96V30.11z"/>
		<path class="st4" d="M572.22,68.22c0,7.27-10.44,7.27-10.44,0C561.78,60.95,572.22,60.95,572.22,68.22"/>
		<path class="st5" d="M572.22,51.88c0,7.27-10.44,7.27-10.44,0C561.78,44.61,572.22,44.61,572.22,51.88"/>
		<path class="st6" d="M572.22,35.54c0,7.27-10.44,7.27-10.44,0C561.78,28.27,572.22,28.27,572.22,35.54"/>
	</g>
</g>
<g>
	<path class="st7" d="M468.89,527.62h-37.2c-8.15,0-14.82-6.67-14.82-14.82V397.41c0-8.15,6.67-14.82,14.82-14.82h37.2
		c8.15,0,14.82,6.67,14.82,14.82V512.8C483.71,520.95,477.04,527.62,468.89,527.62z"/>
</g>
<path class="st7" d="M456.96,505.15h-14.81c-6.6,0-12-5.4-12-12v-57.7c0-6.6,5.4-12,12-12h14.81c6.6,0,12,5.4,12,12v57.7
	C468.96,499.75,463.56,505.15,456.96,505.15z"/>
<path class="st7" d="M483.6,408.81c-6.65,5.76-12.26,12.41-17.06,19.74"/>
<path class="st7" d="M432.87,428.21c-2.97-8-8.16-15.18-16-21.36"/>
<path class="st8" d="M474.83,505.4"/>
<path class="st8" d="M424.53,505.91"/>
<path class="st9" d="M471.28,382.56c0,0,6.29,11.26,12.08,9.9C485,387.04,471.28,382.56,471.28,382.56z"/>
<path class="st10" d="M431.27,382.73c-0.4-0.05-13,1.51-13.07,8.55C422.89,394.47,432.44,382.87,431.27,382.73z"/>
<polygon class="st11" points="469.81,418.31 469.81,418.42 469.75,418.42 "/>
<path class="st12" d="M476.53,405.66c-0.53,1.79-1.31,3.9-2.47,6.17c-1.38,2.7-2.91,4.85-4.25,6.48c-0.02,0.04-0.04,0.07-0.06,0.11
	h-36.71v-0.02l-0.01,0.02c-1.33-1.53-2.89-3.64-4.29-6.34c-1.24-2.39-2-4.61-2.49-6.42c6.21-1.78,15.05-3.6,25.73-3.53
	C461.94,402.38,470.5,403.93,476.53,405.66z"/>
<polygon class="st11" points="469.75,418.42 469.74,418.44 469.73,418.42 "/>
<path class="st12" d="M426.53,516.33c0.51-1.2,1.25-2.61,2.34-4.12c1.31-1.8,2.76-3.24,4.03-4.32c0.02-0.02-1.37,0.67,0.06-0.07
	s22.77-0.97,34.68,0.1l0,0.01l0.01-0.01c1.25,1.03,2.73,2.44,4.04,4.25c1.16,1.61,1.88,3.09,2.34,4.3
	c-5.87,1.17-14.22,2.37-24.31,2.29C440.32,518.57,432.23,517.51,426.53,516.33z"/>
<line class="st7" x1="430.91" y1="497.83" x2="417.13" y2="514.17"/>
<line class="st7" x1="468.53" y1="497.49" x2="482.83" y2="516.89"/>
<path class="st7" d="M416.95,407.73c-5.06-1.04-10.58-0.12-13.87,5.9c6.81-0.13,11.89,0.42,13.68,2.27L416.95,407.73z"/>
<path class="st13" d="M483.81,409.49c5.06-1.04,10.58-0.12,13.87,5.9c-6.81-0.13-11.89,0.42-13.68,2.27L483.81,409.49z"/>
<rect x="444.19" y="147.96" class="st1" width="12.26" height="62.3"/>
<rect x="445.21" y="36.64" class="st1" width="12.26" height="62.3"/>
<g>
	<path class="st14" d="M166.42,126.04h76.15v116.84H142.42v-92.84c0-6.36,2.53-12.47,7.03-16.97
		C153.95,128.57,160.06,126.04,166.42,126.04z"/>
	<path class="st14" d="M351.37,188.63l-29.85-55.46h0c-1.16-2.16-2.88-3.96-4.99-5.22c-2.1-1.26-4.51-1.92-6.95-1.92H166.42
		c-6.36,0-12.47,2.53-16.97,7.03c-4.5,4.5-7.03,10.6-7.03,16.97v92.84h242.02v-39.4c0-3.82-2.6-7.16-6.3-8.09L351.37,188.63z"/>
	<polygon class="st14" points="351.37,188.63 300.99,188.63 300.99,151.08 331.15,151.08 	"/>
	<rect x="242.57" y="126.04" class="st15" width="58.42" height="116.84"/>
	<rect x="242.57" y="126.04" class="st16" width="58.42" height="66.76"/>
	<path class="st17" d="M225.88,176.11c0,18.44-14.95,33.38-33.38,33.38s-33.38-14.95-33.38-33.38s14.95-33.38,33.38-33.38
		S225.88,157.68,225.88,176.11"/>
	<polygon class="st16" points="209.19,167.77 200.84,167.77 200.84,159.42 184.15,159.42 184.15,167.77 175.81,167.77 
		175.81,184.46 184.15,184.46 184.15,192.8 200.84,192.8 200.84,184.46 209.19,184.46 	"/>
	<path class="st18" d="M263.44,142.73h16.69c2.3,0,4.17,2.3,4.17,4.17v25.04c0,2.3-1.87,4.17-4.17,4.17h-16.69
		c-2.3,0-4.17-2.3-4.17-4.17V146.9C259.26,144.6,261.13,142.73,263.44,142.73z"/>
	<path class="st19" d="M263.44,142.73h12.52c2.3,0,4.17,2.3,4.17,4.17v25.04c0,2.3-1.87,4.17-4.17,4.17h-12.52
		c-2.3,0-4.17-2.3-4.17-4.17V146.9C259.26,144.6,261.13,142.73,263.44,142.73z"/>
	<polygon class="st18" points="351.37,188.63 300.99,188.63 300.99,151.08 331.15,151.08 	"/>
	<polygon class="st19" points="342.72,188.63 300.99,188.63 300.99,151.08 321.85,151.08 	"/>
	<rect x="317.68" y="201.15" class="st20" width="16.69" height="8.35"/>
	<polygon class="st15" points="384.45,242.88 346.89,242.88 359.41,226.19 384.45,226.19 	"/>
	<rect x="371.93" y="205.32" class="st21" width="12.52" height="8.35"/>
	<path class="st17" d="M242.57,192.8h58.42v12.52h-58.42V192.8z M142.42,213.67h100.15v12.52H142.42V213.67z"/>
	<rect x="259.26" y="109.35" class="st21" width="25.04" height="16.69"/>
	<path class="st17" d="M271.78,92.66c2.21,0,4.34,0.88,5.9,2.45c1.56,1.56,2.45,3.69,2.45,5.9v8.35h-16.69V101
		C263.44,96.39,267.17,92.66,271.78,92.66z"/>
	<path class="st21" d="M293.47,92.66c-1.89,0-3.55-1.27-4.03-3.09c-0.49-1.83,0.31-3.75,1.94-4.69l7.23-4.17
		c0.96-0.56,2.1-0.72,3.18-0.43c1.08,0.28,1.99,0.98,2.55,1.95c0.55,0.96,0.7,2.11,0.41,3.18c-0.29,1.07-1,1.99-1.96,2.53
		l-7.23,4.17C294.92,92.46,294.2,92.66,293.47,92.66z M250.09,92.66c-0.73,0-1.45-0.19-2.08-0.56l-7.23-4.17
		c-0.96-0.55-1.67-1.46-1.96-2.53c-0.29-1.07-0.14-2.22,0.41-3.18c0.56-0.96,1.47-1.66,2.55-1.95c1.07-0.29,2.22-0.13,3.18,0.43
		l7.23,4.17c1.64,0.94,2.43,2.87,1.94,4.69C253.64,91.39,251.98,92.66,250.09,92.66z M271.78,80.14c-2.3,0-4.17-1.87-4.17-4.17
		v-8.35c0-2.3,1.87-4.17,4.17-4.17c2.3,0,4.17,1.87,4.17,4.17v8.35c0,1.11-0.44,2.17-1.22,2.95
		C273.95,79.7,272.89,80.14,271.78,80.14z"/>
	<path class="st20" d="M300.99,188.63h4.17v54.25h-4.17V188.63z M300.99,126.04h4.17v25.04h-4.17V126.04z M238.4,226.19h4.17v16.69
		h-4.17V226.19z M238.4,126.04h4.17v87.63h-4.17V126.04z"/>
	<rect x="238.4" y="213.67" class="st22" width="4.17" height="12.52"/>
	<rect x="300.99" y="151.08" class="st23" width="4.17" height="37.56"/>
	<path class="st15" d="M209.63,243.46c0,9.22-7.47,16.69-16.69,16.69c-9.22,0-16.69-7.47-16.69-16.69c0-9.22,7.47-16.69,16.69-16.69
		C202.16,226.77,209.63,234.24,209.63,243.46"/>
	<path class="st20" d="M197.71,242.88c0,2.88-2.34,5.22-5.22,5.22s-5.22-2.34-5.22-5.22s2.34-5.22,5.22-5.22
		S197.71,240,197.71,242.88"/>
	<path class="st20" d="M176.32,238.78 M192.47,230.35L192.47,230.35c-2.78,0.01-5.48,0.94-7.67,2.65c-2.19,1.71-3.75,4.1-4.44,6.79
		c-0.82,3.22-0.32,6.63,1.38,9.48c1.7,2.85,4.46,4.91,7.68,5.73c3.22,0.82,6.63,0.32,9.48-1.38c2.85-1.7,4.91-4.46,5.73-7.68
		c0.82-3.22,0.32-6.63-1.38-9.48c-1.7-2.85-4.46-4.91-7.68-5.73C194.56,230.48,193.52,230.35,192.47,230.35L192.47,230.35z
		 M192.53,263.75c-1.74,0-3.47-0.22-5.16-0.65c-5.37-1.36-9.97-4.79-12.8-9.55c-2.83-4.75-3.66-10.44-2.3-15.8
		c1.29-5.07,4.43-9.46,8.81-12.32c4.38-2.85,9.67-3.96,14.83-3.1c5.16,0.86,9.8,3.63,13.02,7.75c3.21,4.12,4.76,9.31,4.34,14.52
		c-0.43,5.21-2.8,10.07-6.63,13.62C202.8,261.76,197.76,263.74,192.53,263.75L192.53,263.75z"/>
	<path class="st15" d="M355.67,243.46c0,9.22-7.47,16.69-16.69,16.69c-9.22,0-16.69-7.47-16.69-16.69c0-9.22,7.47-16.69,16.69-16.69
		C348.2,226.77,355.67,234.24,355.67,243.46"/>
	<path class="st20" d="M343.75,242.88c0,2.88-2.34,5.22-5.22,5.22c-2.88,0-5.22-2.34-5.22-5.22s2.33-5.22,5.22-5.22
		C341.42,237.66,343.75,240,343.75,242.88"/>
	<path class="st20" d="M322.36,238.78 M338.51,230.35c-2.78,0.01-5.48,0.94-7.67,2.65c-2.19,1.71-3.75,4.1-4.44,6.79
		c-0.82,3.22-0.32,6.63,1.38,9.48c1.7,2.85,4.46,4.91,7.68,5.73c3.22,0.82,6.63,0.32,9.48-1.38c2.85-1.7,4.91-4.46,5.73-7.68
		c0.81-3.22,0.32-6.63-1.38-9.48c-1.7-2.85-4.46-4.91-7.68-5.73C340.6,230.48,339.56,230.35,338.51,230.35z M338.57,263.75
		c-1.74,0-3.47-0.22-5.16-0.65c-5.37-1.36-9.97-4.79-12.8-9.55c-2.83-4.75-3.66-10.44-2.3-15.8c1.29-5.07,4.43-9.46,8.81-12.32
		c4.38-2.85,9.67-3.96,14.83-3.1c5.16,0.86,9.8,3.63,13.02,7.75c3.21,4.12,4.76,9.31,4.34,14.52c-0.43,5.21-2.8,10.07-6.63,13.62
		C348.84,261.76,343.8,263.74,338.57,263.75L338.57,263.75z"/>
</g>
<polygon class="st24" points="567.61,134.76 282.73,186.15 322.72,289.12 "/>
<g>
	<path class="st25" d="M804.33,390.76c0,6.72-4.93,12.16-11.01,12.16c-6.08,0-11.01-5.45-11.01-12.16c0-6.72,4.93-12.16,11.01-12.16
		C799.4,378.59,804.33,384.04,804.33,390.76"/>
	<path class="st25" d="M823.32,447.19L815.62,411c-0.27-1.22-0.82-2.43-1.65-3.34c-3.3-3.04-7.15-5.17-11.56-6.69
		c-3.02-0.61-6.06-1.22-9.08-1.22c-3.03,0-6.06,0.61-9.08,1.52c-4.4,1.22-8.26,3.65-11.56,6.69c-0.82,0.91-1.38,2.13-1.65,3.34
		l-7.7,36.19c0,0.3-0.27,0.91-0.27,1.52c0,3.34,2.48,6.08,5.5,6.08c2.48,0,4.68-2.13,5.23-4.56l5.76-26.45v85.15h11.01v-54.74h5.5
		v54.74h11.01v-85.45l5.78,26.46c0.55,2.43,2.75,4.56,5.23,4.56c3.02,0,5.5-2.74,5.5-6.08C823.6,448.11,823.32,447.5,823.32,447.19
		L823.32,447.19z"/>
</g>
<g>
	<path class="st25" d="M754.61,434.16c0,4.36-3.87,7.9-8.64,7.9c-4.77,0-8.64-3.54-8.64-7.9c0-4.36,3.87-7.9,8.64-7.9
		C750.73,426.26,754.61,429.8,754.61,434.16"/>
	<path class="st25" d="M769.51,470.81l-6.05-23.51c-0.21-0.79-0.65-1.58-1.29-2.17c-2.59-1.98-5.61-3.36-9.07-4.35
		c-2.37-0.4-4.75-0.79-7.13-0.79c-2.37,0-4.75,0.4-7.13,0.99c-3.45,0.79-6.48,2.37-9.07,4.35c-0.65,0.59-1.08,1.38-1.29,2.17
		l-6.05,23.51c0,0.19-0.21,0.59-0.21,0.99c0,2.17,1.95,3.95,4.32,3.95c1.95,0,3.67-1.38,4.1-2.96l4.52-17.18v55.31h8.64v-35.56h4.32
		v35.56h8.64v-55.5l4.53,17.19c0.43,1.58,2.16,2.96,4.11,2.96c2.37,0,4.32-1.78,4.32-3.95
		C769.72,471.41,769.51,471.01,769.51,470.81L769.51,470.81z"/>
</g>
<path class="st26" d="M448.53,419.62h-9.19c-1.83,0-3.32-1.49-3.32-3.32l0,0c0-1.83,1.49-3.32,3.32-3.32h9.19
	c1.83,0,3.32,1.49,3.32,3.32l0,0C451.85,418.12,450.36,419.62,448.53,419.62z"/>
<path class="st27" d="M548.69,164.66c1.29,2.15,3.38,3.71,5.81,4.32c2.43,0.6,5.01,0.2,7.16-1.09 M536.54,171.96
	c3.23,5.38,8.46,9.24,14.54,10.76s12.51,0.55,17.89-2.68 M524.39,179.27c5.16,8.59,13.54,14.78,23.26,17.2
	c9.73,2.42,20.03,0.88,28.61-4.28"/>
<path class="st0" d="M569.98,136.81h-9.19c-1.83,0-3.32-1.49-3.32-3.32l0,0c0-1.83,1.49-3.32,3.32-3.32h9.19
	c1.83,0,3.32,1.49,3.32,3.32l0,0C573.3,135.31,571.8,136.81,569.98,136.81z"/>
<path class="st27" d="M499.89,276.62c0.82,2.37,2.54,4.32,4.8,5.42c2.26,1.09,4.86,1.22,7.23,0.4 M486.5,281.28
	c2.06,5.93,6.38,10.78,12.02,13.51c5.64,2.73,12.13,3.11,18.05,1.05 M473.11,285.94c3.29,9.46,10.22,17.24,19.24,21.61
	c9.02,4.37,19.42,4.97,28.88,1.68"/>
<path class="st27" d="M452.45,387.24c0.49,1.36,1.5,2.48,2.81,3.1c1.31,0.62,2.82,0.68,4.18,0.19 M444.74,390.01
	c1.23,3.41,3.76,6.19,7.03,7.73c3.28,1.54,7.03,1.72,10.44,0.49 M437.03,392.79c1.96,5.45,6.01,9.9,11.26,12.37
	s11.26,2.75,16.71,0.79"/>
<polygon class="st28" points="458.2,340.24 436.7,340.24 425.95,358.86 436.7,377.49 458.2,377.49 468.96,358.86 "/>
<rect x="431.43" y="356.13" class="st29" width="34.21" height="14.04"/>
<text transform="matrix(1 0 0 1 431.4254 364.7196)" class="st1 st30 st31">STOP</text>
</svg>
