<?xml version="1.0" encoding="utf-8"?>
<!-- Generator: Adobe Illustrator 26.3.1, SVG Export Plug-In . SVG Version: 6.00 Build 0)  -->
<svg version="1.1" id="Capa_1" xmlns="http://www.w3.org/2000/svg" xmlns:xlink="http://www.w3.org/1999/xlink" x="0px" y="0px"
	 viewBox="0 0 841.89 595.28" style="enable-background:new 0 0 841.89 595.28;" xml:space="preserve">
<style type="text/css">
	.st0{fill:#878787;}
	.st1{fill:#FFFFFF;}
	.st2{fill:#222222;}
	.st3{fill:#020203;}
	.st4{fill-rule:evenodd;clip-rule:evenodd;fill:#343434;}
	.st5{fill:#676767;}
	.st6{fill:#89C059;}
	.st7{fill:#FDCC68;}
	.st8{fill:#EE7262;}
	.st9{opacity:0.41;fill:#BE1622;}
	.st10{fill:#E6332A;stroke:#000000;stroke-miterlimit:10;}
	.st11{fill:none;stroke:#000000;stroke-miterlimit:10;}
	.st12{fill:#EDEDED;}
	.st13{fill:#EDEDED;stroke:#000000;stroke-width:0.25;stroke-miterlimit:10;}
	.st14{fill:#E6332A;stroke:#000000;stroke-width:0.5;stroke-miterlimit:10;}
</style>
<rect x="-3.64" y="169.66" class="st0" width="843.57" height="139.4"/>
<polygon class="st0" points="403.85,206.17 304.79,595.79 581.55,595.79 496.79,205.15 "/>
<rect x="443.68" y="264.38" class="st1" width="12.26" height="62.3"/>
<rect x="442.66" y="491.11" class="st1" width="16.34" height="93.96"/>
<rect x="442.66" y="364.47" class="st1" width="13.28" height="68.43"/>
<rect x="59.17" y="220.98" transform="matrix(6.123234e-17 -1 1 6.123234e-17 -189.383 321)" class="st1" width="13.28" height="68.43"/>
<rect x="236.49" y="222.64" transform="matrix(6.123234e-17 -1 1 6.123234e-17 -37.5957 527.9362)" class="st1" width="17.36" height="120.26"/>
<path class="st2" d="M619.78,258.64c5.91,0,10.69,4.79,10.69,10.7s-4.78,10.7-10.69,10.7c-5.91,0-10.7-4.79-10.7-10.7
	S613.87,258.64,619.78,258.64z M738.59,258.2c5.91,0,10.7,4.79,10.7,10.7s-4.79,10.7-10.7,10.7c-5.91,0-10.69-4.79-10.69-10.7
	S732.69,258.2,738.59,258.2z M619.78,254.63c-8.12,0-14.71,6.59-14.71,14.71c0,8.12,6.59,14.71,14.71,14.71
	c8.12,0,14.69-6.58,14.69-14.71C634.47,261.22,627.9,254.63,619.78,254.63z M738.59,254.19c-8.12,0-14.71,6.58-14.71,14.71
	s6.58,14.71,14.71,14.71c8.12,0,14.71-6.58,14.71-14.71S746.72,254.19,738.59,254.19z M608.86,239.99c0.26-0.01,0.52,0.02,0.74,0.15
	c0.22,0.13,0.39,0.42,0.37,0.68c-0.04,0.44-0.51,0.73-0.82,1.04c-1.03,1.04-2.27,1.84-3.41,2.75c-1.6,1.27-3.14,2.64-4.83,3.79
	c-0.73,0.5-1.48,1-2.3,1.33c-0.73,0.29-1.52,0.41-2.3,0.52c-1.45,0.21-2.91,0.32-4.37,0.3c-0.52-0.01-1.12,0.14-1.56-0.14
	c-0.29-0.18-0.3-0.63-0.52-0.9c-0.33-0.41-0.77-0.73-1.2-1.04c-0.23-0.17-0.69-0.16-0.74-0.44c-0.15-0.85,1.05-1.38,1.64-2
	c0.55-0.59,1.03-1.34,1.78-1.63c0.35-0.13,0.75,0.08,1.11,0c0.92-0.22,1.66-0.89,2.52-1.26c1.09-0.46,2.22-0.82,3.34-1.2
	c1.13-0.37,2.26-0.77,3.42-1.04c1.03-0.24,2.07-0.39,3.11-0.52c0.89-0.11,1.78-0.18,2.68-0.22
	C607.95,240.13,608.42,240,608.86,239.99z M656.83,222.25c-0.79,3.22-1.92,6.69-2.71,9.91c0,0-1.23-0.28-1.82-0.22
	c-0.51,0.05-1.44,0.36-2.11,0.71c-0.59,0.31-1.3,0.76-1.82,1.18c-0.56,0.46-1.19,1.27-1.45,1.94c-0.38,0.97,0,2.81,0,2.81
	s-1.47,0.13-2.41,0.23c-0.94,0.1-2.82,0.22-2.82,0.22s0.92-3.81,1.56-5.65c0.44-1.25,1.56-3.64,1.56-3.64s1.38-1.35,2.15-1.93
	c1.47-1.11,3.08-2.06,4.68-2.97C653.32,223.9,656.83,222.25,656.83,222.25z M729.43,218.5c0,0,2.41,0.58,3.57,1.01
	c1.62,0.59,3.23,1.28,4.72,2.15c1.87,1.09,3.61,2.41,5.24,3.83c1.11,0.97,2.26,1.94,3.05,3.19c0.69,1.1,0.34,1.05-0.68,1.53
	c-2.11,0.99-4.45,1.37-6.72,1.89c-2.17,0.5-6.57,1.18-6.57,1.18L729.43,218.5z M690.25,214.76c0,0-1.18,6.55-1.93,9.8
	c-0.78,3.42-2.68,10.18-2.68,10.18s-5.49,0.23-8.24,0.44c-5.08,0.39-10.16,0.91-15.23,1.48c-1.91,0.22-5.43,0.49-5.43,0.49
	s0.02-1.39-0.18-2.05c-0.2-0.66-0.96-1.82-0.96-1.82l2.92-11.77c0,0,3.29-1.43,4.98-2c2.63-0.89,5.32-1.58,8.02-2.23
	c2.73-0.65,5.48-1.22,8.25-1.64c2.17-0.32,4.35-0.49,6.53-0.66C687.63,214.87,690.25,214.76,690.25,214.76z M698.34,214.71
	c0,0,3.44,0.01,5.16,0.08c2.48,0.11,4.96,0.3,7.43,0.52c2.53,0.22,5.06,0.46,7.57,0.82c1.83,0.26,3.73,0.59,5.46,0.96
	c0.41,0.09,0.99,0.35,1.01,0.78c0.1,2.6,0.11,5.08,0.14,7.62c0.03,2.71,0.03,8.13,0.03,8.13s-9.18,0.07-13.78,0.15
	c-4.99,0.09-14.96,0.37-14.96,0.37L698.34,214.71z M686.1,210.51c-0.3,0.43-0.62,0.61-1,0.74c-1.24,0.43-2.37,0.63-3.82,0.81
	c-2.21,0.27-4.6,0.72-6.78,1.2c-2.79,0.61-5.52,1.43-8.24,2.3c-2.46,0.79-4.89,1.69-7.28,2.68c-2.27,0.94-4.5,2.01-6.69,3.12
	c-1.86,0.95-3.7,1.97-5.49,3.05c-1.85,1.1-3.66,2.27-5.43,3.49c-2.02,1.4-3.98,2.88-5.94,4.37c-1.13,0.87-2.27,1.74-3.34,2.68
	c-0.72,0.63-0.65,0.74-1.59,1.37c-0.72,0.49-1.6,0.42-2.41,0.03c-0.81-0.39-2.16-1.18-2.16-1.18s1.62-1.21,2.89-2.09
	c-0.02,0-0.06,0.02-0.08,0.02c-0.81,0.11-1.85-0.19-2.66-0.31c-0.49-0.07-1-0.09-1.49-0.07c-1.08,0.06-2.13,0.31-3.19,0.52
	c-5.21,1.03-10.42,2.15-15.53,3.63c-3.68,1.07-7.31,2.3-10.84,3.79c-1.17,0.49-2.36,0.99-3.41,1.72c-0.97,0.66-1.87,1.45-2.6,2.37
	c-0.69,0.87-1.17,1.9-1.64,2.9c-0.44,0.94-0.9,1.88-1.11,2.89c-0.32,1.58-0.16,3.22-0.15,4.83c0.01,1.73,0.06,3.48,0.23,5.2
	c0.18,1.77,0.43,3.31,0.51,5.08c0.02,0.37,0.01,0.98-0.14,1.32c-0.12,0.25-0.14,0.31-0.22,0.58c-0.07,0.24,0.04,0.51,0.14,0.74
	c0.24,0.56,0.61,1.06,1.04,1.48c0.21,0.21,0.52,0.31,0.74,0.52c0.32,0.3,0.51,0.73,0.82,1.04c0.67,0.66,1.4,1.27,2.23,1.71
	c1.17,0.61,2.5,0.9,3.79,1.2c1.39,0.31,2.82,0.47,4.24,0.59c0.99,0.08,1.83,0.19,2.97,0.08c0.82-0.02,0.69-0.01,1.43-0.02
	c-0.62-1.78-0.94-3.66-0.94-5.55c0-9.29,7.53-16.81,16.82-16.81c9.29,0,16.81,7.52,16.81,16.81c0,1.71-0.26,3.36-0.73,4.92
	c0.53-0.01,0.43,0,1-0.01c36.9-0.45,55.95-1.07,83.93-1.48c0.49-0.01,0.97-0.02,1.45-0.03c-0.29-1.26-0.44-2.54-0.44-3.83
	c0-9.29,7.52-16.81,16.81-16.81c9.29,0,16.82,7.52,16.82,16.81c0,0.58-0.03,1.15-0.09,1.72c0.5-0.09,1-0.24,1.46-0.45
	c0.98-0.44,1.85-1.1,2.68-1.78c0.89-0.73,1.7-1.56,2.45-2.45c0.47-0.56,1.07-1.08,1.26-1.78c0.24-0.89-0.17-0.68-0.22-2.76
	c-0.08-3.27,0-6.54-0.22-9.8c-0.09-1.29-0.11-2.76-0.44-3.86c-0.11-0.39-0.48-0.76-0.74-1.07c-0.24-0.29-0.7-0.34-0.74-0.71
	c-0.15-1.4-0.16-2.87-0.23-4.31c-0.04-0.93,0.01-1.86-0.07-2.78c-0.01,0.06-0.03,0.13-0.04,0.19c-0.09,0.3-0.44,0.46-0.59,0.74
	c-0.16,0.3-0.24,0.63-0.3,0.96c-0.11,0.65-0.11,1.32-0.08,1.97c0.03,0.69,0.21,1.35,0.27,2.04c0.03,0.43,0.21,0.91,0.03,1.31
	c-0.13,0.3-0.44,0.51-0.74,0.63c-0.58,0.24-1.26,0.22-1.89,0.14c-0.65-0.08-1.3-0.29-1.86-0.63c-1.1-0.66-1.92-1.72-2.82-2.64
	c-1.48-1.5-2.99-3-4.26-4.68c-0.33-0.43-0.76-0.84-0.85-1.37c-0.08-0.46,0.02-0.99,0.29-1.37c0.52-0.73,1.49-1.02,2.3-1.41
	c0.96-0.46,1.97-0.85,3.01-1.09c0.75-0.17,1.53-0.22,2.3-0.22c0.75-0.01,1.51-0.02,2.23,0.19c0.66,0.19,1.33,0.45,1.82,0.93
	c0.06,0.06,0.13,0.14,0.18,0.21c-0.48-1.13-1.19-2.13-1.89-3.13c-0.14-0.05-1.69-0.62-2.55-0.83c-0.62-0.15-1.78-0.14-1.78-0.14
	s-1.5-2.18-2.34-3.2c-1.01-1.24-2.09-2.44-3.23-3.55c-1.25-1.22-2.58-2.37-3.98-3.42c-1.38-1.04-4.34-2.82-4.34-2.82l2.44-1.21
	c-0.36-0.4,0.14-1.44-0.24-1.91c-0.29-0.35-0.77-0.35-1.37-0.37c-1.63-0.03-3.17-0.12-4.79-0.23c-2.09-0.14-4.16-0.47-6.23-0.74
	c-2.06-0.27-4.1-0.67-6.17-0.9c-4.27-0.47-8.56-0.76-12.85-0.96c-4.7-0.23-9.42-0.15-14.12-0.3c-1.76-0.06-3.52-0.13-5.27-0.22
	C689.21,210.73,687.66,210.48,686.1,210.51z"/>
<g>
	<path class="st3" d="M288.84,290.41c0,6.72-4.93,12.16-11.01,12.16c-6.08,0-11.01-5.45-11.01-12.16c0-6.72,4.93-12.16,11.01-12.16
		C283.91,278.25,288.84,283.7,288.84,290.41"/>
	<path class="st3" d="M307.83,346.85l-7.71-36.19c-0.27-1.22-0.82-2.43-1.65-3.34c-3.3-3.04-7.15-5.17-11.56-6.69
		c-3.02-0.61-6.06-1.22-9.08-1.22c-3.03,0-6.06,0.61-9.08,1.52c-4.4,1.22-8.26,3.65-11.56,6.69c-0.82,0.91-1.38,2.13-1.65,3.34
		l-7.7,36.19c0,0.3-0.27,0.91-0.27,1.52c0,3.34,2.48,6.08,5.5,6.08c2.48,0,4.68-2.13,5.23-4.56l5.76-26.45v85.15h11.01v-54.74h5.5
		v54.74h11.01v-85.45l5.78,26.46c0.55,2.43,2.75,4.56,5.23,4.56c3.02,0,5.5-2.74,5.5-6.08
		C308.11,347.77,307.83,347.16,307.83,346.85L307.83,346.85z"/>
</g>
<rect x="235.98" y="196.21" transform="matrix(6.123234e-17 -1 1 6.123234e-17 -11.6809 501)" class="st1" width="17.36" height="120.26"/>
<rect x="236.49" y="170.17" transform="matrix(6.123234e-17 -1 1 6.123234e-17 14.8723 475.4681)" class="st1" width="17.36" height="120.26"/>
<path class="st4" d="M306.94,154.77"/>
<path class="st4" d="M312.3,154.77"/>
<rect x="236.23" y="143.87" transform="matrix(6.123234e-17 -1 1 6.123234e-17 40.9149 448.9149)" class="st1" width="17.36" height="120.26"/>
<g>
	<path class="st4" d="M321.11,158.43h-0.6c-1.25,0-2.27-1.02-2.27-2.27V73.4c0-1.25,1.02-2.27,2.27-2.27h0.6
		c1.25,0,2.27,1.02,2.27,2.27v82.75C323.38,157.4,322.36,158.43,321.11,158.43z"/>
	<g>
		<path class="st5" d="M331.36,14.43h-17.41c-1.92,0-3.48,1.63-3.48,3.63v50.82c0,0.96,0.37,1.89,1.02,2.57
			c0.65,0.68,1.54,1.06,2.46,1.06h17.41c0.92,0,1.81-0.38,2.46-1.06c0.65-0.68,1.02-1.6,1.02-2.57V18.06c0-0.96-0.37-1.89-1.02-2.57
			C333.17,14.81,332.29,14.43,331.36,14.43z"/>
		<path class="st4" d="M334.85,63.43h1.74c0,0,2.67-9.08,5.22-9.08v-1.82h-6.96V63.43z M334.85,47.1h1.74c0,0,2.67-9.08,5.22-9.08
			v-1.82h-6.96V47.1z M334.85,19.87v10.89h1.74c0,0,2.67-9.08,5.22-9.08v-1.82H334.85z M303.51,54.36c2.56,0,5.22,9.08,5.22,9.08
			h1.74V52.54h-6.96V54.36z M303.51,38.02c2.56,0,5.22,9.08,5.22,9.08h1.74V36.21h-6.96V38.02z M303.51,21.69
			c2.56,0,5.22,9.08,5.22,9.08h1.74V19.87h-6.96V21.69z"/>
		<path class="st6" d="M327.88,59.79c0,7.27-10.44,7.27-10.44,0C317.44,52.52,327.88,52.52,327.88,59.79"/>
		<path class="st7" d="M327.88,43.45c0,7.27-10.44,7.27-10.44,0C317.44,36.18,327.88,36.18,327.88,43.45"/>
		<path class="st8" d="M327.88,27.12c0,7.27-10.44,7.27-10.44,0C317.44,19.85,327.88,19.85,327.88,27.12"/>
	</g>
</g>
<g>
	<path class="st3" d="M224.82,327.18c0,4.36-3.87,7.9-8.64,7.9c-4.77,0-8.64-3.54-8.64-7.9s3.87-7.9,8.64-7.9
		C220.95,319.28,224.82,322.82,224.82,327.18"/>
	<path class="st3" d="M239.72,363.83l-6.05-23.51c-0.21-0.79-0.65-1.58-1.29-2.17c-2.59-1.98-5.61-3.36-9.07-4.35
		c-2.37-0.4-4.75-0.79-7.13-0.79c-2.37,0-4.75,0.4-7.13,0.99c-3.45,0.79-6.48,2.37-9.07,4.35c-0.65,0.59-1.08,1.38-1.29,2.17
		l-6.05,23.51c0,0.19-0.21,0.59-0.21,0.99c0,2.17,1.95,3.95,4.32,3.95c1.95,0,3.67-1.38,4.1-2.96l4.52-17.18v55.31h8.64v-35.56h4.32
		v35.56h8.64v-55.5l4.53,17.19c0.43,1.58,2.16,2.96,4.11,2.96c2.37,0,4.32-1.78,4.32-3.95
		C239.94,364.43,239.72,364.03,239.72,363.83L239.72,363.83z"/>
</g>
<polygon class="st9" points="446.75,439.1 217.44,259.18 165.89,361.15 "/>
<polygon class="st9" points="434.06,425.58 684.33,317.97 616.79,223.53 "/>
<g>
	<path class="st10" d="M471.19,529.15h-37.2c-8.15,0-14.82-6.67-14.82-14.82V398.95c0-8.15,6.67-14.82,14.82-14.82h37.2
		c8.15,0,14.82,6.67,14.82,14.82v115.39C486.01,522.48,479.34,529.15,471.19,529.15z"/>
	<path class="st10" d="M459.26,506.68h-14.81c-6.6,0-12-5.4-12-12v-57.7c0-6.6,5.4-12,12-12h14.81c6.6,0,12,5.4,12,12v57.7
		C471.26,501.28,465.86,506.68,459.26,506.68z"/>
	<path class="st10" d="M485.89,410.34c-6.65,5.76-12.26,12.41-17.06,19.74"/>
	<path class="st10" d="M435.17,429.74c-2.97-8-8.16-15.18-16-21.36"/>
	<path class="st11" d="M477.13,506.94"/>
	<path class="st11" d="M426.83,507.45"/>
	<path class="st12" d="M474.09,383.58c0,0,6.29,11.26,12.08,9.9C487.81,388.06,474.09,383.58,474.09,383.58z"/>
	<path class="st12" d="M433.57,383.41c-0.4-0.05-13,1.51-13.07,8.55C425.18,395.16,434.74,383.55,433.57,383.41z"/>
	<polygon class="st12" points="472.11,419.84 472.11,419.95 472.05,419.95 	"/>
	<path class="st13" d="M478.83,407.19c-0.53,1.79-1.31,3.9-2.47,6.17c-1.38,2.7-2.91,4.85-4.25,6.48c-0.02,0.04-0.04,0.07-0.06,0.11
		h-36.71v-0.02l-0.01,0.02c-1.33-1.53-2.89-3.64-4.29-6.34c-1.24-2.39-2-4.61-2.49-6.42c6.21-1.78,15.05-3.6,25.73-3.53
		C464.23,403.91,472.8,405.46,478.83,407.19z"/>
	<polygon class="st12" points="472.05,419.95 472.04,419.97 472.03,419.95 	"/>
	<path class="st13" d="M428.83,517.86c0.51-1.2,1.25-2.61,2.34-4.12c1.31-1.8,2.76-3.24,4.03-4.32c0.02-0.02-1.37,0.66,0.06-0.07
		c1.43-0.74,22.77-0.97,34.68,0.1l0,0.01l0.01-0.01c1.25,1.03,2.73,2.44,4.04,4.25c1.16,1.61,1.88,3.09,2.34,4.3
		c-5.87,1.17-14.22,2.37-24.31,2.29C442.62,520.1,434.52,519.04,428.83,517.86z"/>
	<line class="st10" x1="432.7" y1="500.04" x2="418.91" y2="516.38"/>
	<line class="st10" x1="471" y1="499.02" x2="485.3" y2="518.43"/>
	<path class="st14" d="M419.25,409.26c-5.06-1.04-10.58-0.12-13.87,5.9c6.81-0.13,11.89,0.42,13.68,2.27L419.25,409.26z"/>
	<path class="st14" d="M486.11,411.03c5.06-1.04,10.58-0.12,13.87,5.9c-6.81-0.13-11.89,0.42-13.68,2.27L486.11,411.03z"/>
</g>
<polygon class="st0" points="428.7,-0.16 370.91,234.26 524.83,236.02 480.39,-0.18 "/>
<rect x="444.19" y="147.96" class="st1" width="12.26" height="62.3"/>
<rect x="445.21" y="36.64" class="st1" width="12.26" height="62.3"/>
</svg>
