<?xml version="1.0" encoding="utf-8"?>
<!-- Generator: Adobe Illustrator 26.3.1, SVG Export Plug-In . SVG Version: 6.00 Build 0)  -->
<svg version="1.1" id="Capa_1" xmlns="http://www.w3.org/2000/svg" xmlns:xlink="http://www.w3.org/1999/xlink" x="0px" y="0px"
	 viewBox="0 0 253.4 171.7" style="enable-background:new 0 0 253.4 171.7;" xml:space="preserve">
<style type="text/css">
	.st0{stroke:#000000;stroke-miterlimit:10;}
	.st1{fill:url(#SVGID_1_);stroke:url(#SVGID_00000167358294777417865850000002526934333647635089_);stroke-miterlimit:10;}
	
		.st2{fill:url(#SVGID_00000034786223423571741860000004096122357802028188_);stroke:url(#SVGID_00000018216218068422607180000000036142898067859349_);stroke-miterlimit:10;}
	
		.st3{fill:url(#SVGID_00000096769969435355006970000004362909106415408302_);stroke:url(#SVGID_00000086676417023250267790000004272991064598952069_);stroke-miterlimit:10;}
	
		.st4{fill:url(#SVGID_00000032616710616248269850000004099224745423596218_);stroke:url(#SVGID_00000178178244115375528890000004646485605743953575_);stroke-miterlimit:10;}
	
		.st5{fill:url(#SVGID_00000000210510178033397090000000411161814214391438_);stroke:url(#SVGID_00000047742846678855027940000016130306644252123581_);stroke-miterlimit:10;}
	.st6{fill:#FF9700;}
	.st7{font-family:'BungeeLayers-Regular';}
	.st8{font-size:17.557px;}
	.st9{fill:none;stroke:#FF9700;stroke-miterlimit:10;}
	.st10{fill:#FFFFFF;}
	.st11{font-size:8.8306px;}
</style>
<polygon class="st0" points="253.4,172.1 0.6,172.1 0.9,-1.9 253.4,-2.2 "/>
<linearGradient id="SVGID_1_" gradientUnits="userSpaceOnUse" x1="53.2533" y1="305.2372" x2="121.4819" y2="305.2372" gradientTransform="matrix(1 0 0 -1 0 353.89)">
	<stop  offset="2.793296e-03" style="stop-color:#FF6515"/>
	<stop  offset="0.4358" style="stop-color:#FFAB15"/>
	<stop  offset="1" style="stop-color:#FCEE21"/>
</linearGradient>
<linearGradient id="SVGID_00000131360810438477493560000011757670832662253457_" gradientUnits="userSpaceOnUse" x1="52.7533" y1="305.2372" x2="122.0245" y2="305.2372" gradientTransform="matrix(1 0 0 -1 0 353.89)">
	<stop  offset="2.793296e-03" style="stop-color:#FF6515"/>
	<stop  offset="0.4358" style="stop-color:#FFAB15"/>
	<stop  offset="1" style="stop-color:#FCEE21"/>
</linearGradient>
<path style="fill:url(#SVGID_1_);stroke:url(#SVGID_00000131360810438477493560000011757670832662253457_);stroke-miterlimit:10;" d="
	M96.5,27.2l22.7,15.4l2.3,10.2l-9.7,11.6h-11.6L86.2,53.8h-5.1L57.9,66.3v2c0,1.2-1,2.2-2.2,2.2l0,0c-1.4,0-2.5-1.1-2.5-2.5v-4
	l27.2-14.9l6.7,0L102,60.3h7.4l6.5-7.9l-1.4-7l-21-14.3c-1.2-0.8-1.4-2.4-0.4-3.4l0,0C93.9,26.7,95.4,26.5,96.5,27.2z"/>
<linearGradient id="SVGID_00000070805648011745967540000007321396624844571026_" gradientUnits="userSpaceOnUse" x1="53.2436" y1="249.8962" x2="118.2392" y2="249.8962" gradientTransform="matrix(1 0 0 -1 0 353.89)">
	<stop  offset="2.793296e-03" style="stop-color:#FF6515"/>
	<stop  offset="0.4358" style="stop-color:#FFAB15"/>
	<stop  offset="1" style="stop-color:#FCEE21"/>
</linearGradient>
<linearGradient id="SVGID_00000136398029096361245920000011522135625138406283_" gradientUnits="userSpaceOnUse" x1="52.7436" y1="249.8962" x2="118.8359" y2="249.8962" gradientTransform="matrix(1 0 0 -1 0 353.89)">
	<stop  offset="2.793296e-03" style="stop-color:#FF6515"/>
	<stop  offset="0.4358" style="stop-color:#FFAB15"/>
	<stop  offset="1" style="stop-color:#FCEE21"/>
</linearGradient>
<path style="fill:url(#SVGID_00000070805648011745967540000007321396624844571026_);stroke:url(#SVGID_00000136398029096361245920000011522135625138406283_);stroke-miterlimit:10;" d="
	M108.5,111.8h3.2l1.9,2.8l-1.9,2.8l-21.6,12.1c-0.9,0.5-1.3,1.6-0.9,2.6l0,0c0.4,1.1,1.7,1.5,2.6,1l23.2-12.9l3.2-5.1l-4.6-7h-6.5
	l-20,10.2h-6.5l-19-12.5l-3.7-5.1V77.3c0-1.4-1.1-2.6-2.6-2.6l0,0c-1.2,0-2.1,0.9-2.1,2.1v25.8l4.2,6l22.3,13.9h8.4L108.5,111.8z"/>
<linearGradient id="SVGID_00000167371604458226630240000014388110998220860064_" gradientUnits="userSpaceOnUse" x1="30.0389" y1="282.9808" x2="79.0791" y2="282.9808" gradientTransform="matrix(1 0 0 -1 0 353.89)">
	<stop  offset="2.793296e-03" style="stop-color:#FF6515"/>
	<stop  offset="0.4358" style="stop-color:#FFAB15"/>
	<stop  offset="1" style="stop-color:#FCEE21"/>
</linearGradient>
<linearGradient id="SVGID_00000061455123869853709720000001716491591776558764_" gradientUnits="userSpaceOnUse" x1="29.5389" y1="282.9808" x2="79.5791" y2="282.9808" gradientTransform="matrix(1 0 0 -1 0 353.89)">
	<stop  offset="2.793296e-03" style="stop-color:#FF6515"/>
	<stop  offset="0.4358" style="stop-color:#FFAB15"/>
	<stop  offset="1" style="stop-color:#FCEE21"/>
</linearGradient>
<path style="fill:url(#SVGID_00000167371604458226630240000014388110998220860064_);stroke:url(#SVGID_00000061455123869853709720000001716491591776558764_);stroke-miterlimit:10;" d="
	M32.8,115.1L32.8,115.1c1.5,0,2.8-1.3,2.8-2.8V58.9l5.6-7l36.6-20.5c1.3-0.7,1.7-2.4,0.9-3.6l0,0c-0.7-1.1-2.1-1.4-3.3-0.8
	L39.8,46.8L30,58v54.3C30,113.8,31.3,115.1,32.8,115.1z"/>
<linearGradient id="SVGID_00000144305892095562040400000006382222848104230288_" gradientUnits="userSpaceOnUse" x1="41.6437" y1="268.7833" x2="109.879" y2="268.7833" gradientTransform="matrix(1 0 0 -1 0 353.89)">
	<stop  offset="2.793296e-03" style="stop-color:#FF6515"/>
	<stop  offset="0.4358" style="stop-color:#FFAB15"/>
	<stop  offset="1" style="stop-color:#FCEE21"/>
</linearGradient>
<linearGradient id="SVGID_00000170252334143387231750000012920801292281291436_" gradientUnits="userSpaceOnUse" x1="41.1437" y1="268.7833" x2="110.379" y2="268.7833" gradientTransform="matrix(1 0 0 -1 0 353.89)">
	<stop  offset="2.793296e-03" style="stop-color:#FF6515"/>
	<stop  offset="0.4358" style="stop-color:#FFAB15"/>
	<stop  offset="1" style="stop-color:#FCEE21"/>
</linearGradient>
<path style="fill:url(#SVGID_00000144305892095562040400000006382222848104230288_);stroke:url(#SVGID_00000170252334143387231750000012920801292281291436_);stroke-miterlimit:10;" d="
	M101.5,44.5c0.9-0.4,1.9-0.5,3-0.4c3.3,0.4,5.7,3.1,5.4,6.2c-0.3,3.1-3.3,5.2-6.6,4.9c-3.3-0.4-5.7-3.1-5.4-6.2l0,0
	c0-0.5-0.3-0.9-0.7-1.1l-9.6-6.1h-7.4L50.5,58.4l-4.2,5.1v40.4l3.7,7l28.4,17.9c1,0.6,1.4,1.9,0.9,3l0,0c-0.5,1.2-2,1.6-3.1,1
	l-29.5-17.7l-5.1-9.8V61.2l5.1-6l33-18.1h8.8l11.3,7.3C100.3,44.8,100.9,44.8,101.5,44.5L101.5,44.5z"/>
<linearGradient id="SVGID_00000131334097915803178170000013818182091897496976_" gradientUnits="userSpaceOnUse" x1="36.3815" y1="223.0632" x2="132.6096" y2="223.0632" gradientTransform="matrix(1 0 0 -1 0 353.89)">
	<stop  offset="2.793296e-03" style="stop-color:#FF6515"/>
	<stop  offset="0.4358" style="stop-color:#FFAB15"/>
	<stop  offset="1" style="stop-color:#FCEE21"/>
</linearGradient>
<linearGradient id="SVGID_00000014623301440722390570000005936660956489106623_" gradientUnits="userSpaceOnUse" x1="35.8815" y1="223.0632" x2="133.1096" y2="223.0632" gradientTransform="matrix(1 0 0 -1 0 353.89)">
	<stop  offset="2.793296e-03" style="stop-color:#FF6515"/>
	<stop  offset="0.4358" style="stop-color:#FFAB15"/>
	<stop  offset="1" style="stop-color:#FCEE21"/>
</linearGradient>
<path style="fill:url(#SVGID_00000131334097915803178170000013818182091897496976_);stroke:url(#SVGID_00000014623301440722390570000005936660956489106623_);stroke-miterlimit:10;" d="
	M124.3,128.5c4.2,1.4,7.6-1.3,8.2-4.3c0.6-3-1.5-6-4.7-6.7c-3.3-0.7-6.4,1.2-7.1,4.2l0,0c-0.1,1.1-0.7,2.1-1.6,2.6l-26.3,14.9H76
	l-35-21.4c-1.2-0.8-2.8-0.5-3.8,0.6l0,0c-1.3,1.4-1,3.7,0.7,4.7l36.3,21.2h19.5l27.8-15.9C122.3,127.9,123.4,128,124.3,128.5
	L124.3,128.5z"/>
<text transform="matrix(1.0564 0 0 1 78.9995 89.1796)" class="st6 st7 st8">Citychip.PE</text>
<text transform="matrix(1.0564 0 0 1 78.9995 89.1796)" class="st9 st7 st8">Citychip.PE</text>
<text transform="matrix(1 0 0 1 66.9136 101.4247)" class="st10 st7 st11">La ciudad del chip a un click.</text>
</svg>
