<svg width="2551" height="3295" viewBox="0 0 2551 3295" fill="none" xmlns="http://www.w3.org/2000/svg">
<rect width="2551" height="3295" fill="white"/>
<path fill-rule="evenodd" clip-rule="evenodd" d="M1524.5 2987H1086C1065.5 2987 1030.16 3009.5 1031.5 3041C1032.74 3070 1065 3090.58 1083.5 3090.58H1183C1202 3090.58 1203 3124.5 1185 3124.5H1027V3160.01H1196C1204 3160.01 1238 3147 1238 3105.72C1234.5 3071.5 1203 3056.87 1186.5 3056.87H1086C1067 3056.87 1068.5 3021.69 1088.5 3021.69H1267.5V3156L1316 3091H1270.5L1319.5 3021.69H1524.5V2987ZM1524.5 3057H1393.77V3041H1354.85L1332.4 3070.38L1395.76 3069.39V3070.63L1281.5 3160H1524.5V3125.5H1393.77V3091H1524.5V3057Z" fill="black"/>
<rect x="2263" y="804" width="40" height="173" transform="rotate(180 2263 804)" fill="black"/>
<rect x="159" y="436" width="100" height="1320" fill="black"/>
<rect x="232" y="528.415" width="40" height="217.239" transform="rotate(-45 232 528.415)" fill="black"/>
<rect x="253.415" y="990.026" width="40" height="217.239" transform="rotate(-135 253.415 990.026)" fill="black"/>
<rect x="406.599" y="849.24" width="40" height="217.239" transform="rotate(180 406.599 849.24)" fill="black"/>
<rect x="1247" y="804" width="40" height="99" transform="rotate(180 1247 804)" fill="black"/>
<rect x="1798" y="804" width="40" height="99" transform="rotate(180 1798 804)" fill="black"/>
<rect x="1651" y="549" width="40" height="288" transform="rotate(90 1651 549)" fill="black"/>
<rect x="1067" y="847" width="40" height="215" transform="rotate(180 1067 847)" fill="black"/>
<rect x="750" y="847" width="40" height="215" transform="rotate(180 750 847)" fill="black"/>
<rect x="407.239" y="724" width="40" height="217.239" transform="rotate(90 407.239 724)" fill="black"/>
<rect x="2263" y="632" width="40.0001" height="1856" transform="rotate(90 2263 632)" fill="black"/>
<rect x="1067" y="807" width="40" height="660" transform="rotate(90 1067 807)" fill="black"/>
<rect x="2263" y="765" width="40" height="1196" transform="rotate(90 2263 765)" fill="black"/>
<rect x="720" y="651" width="318" height="122" fill="black"/>
<circle cx="803" cy="712" r="36" fill="#00D600"/>
<ellipse cx="892.5" cy="712" rx="36.5" ry="36" fill="#FFFF00"/>
<circle cx="982" cy="712" r="36" fill="#FF0000"/>
<rect x="1905" y="651" width="318" height="122" fill="black"/>
<circle cx="1988" cy="712" r="36" fill="#00D600"/>
<ellipse cx="2077.5" cy="712" rx="36.5" ry="36" fill="#FFFF00"/>
<circle cx="2167" cy="712" r="36" fill="#FF0000"/>
<rect x="1363" y="548" width="288" height="256" fill="black"/>
<path d="M1401.45 739.898V686.461L1409.06 678.844L1416.68 686.461V739.898L1409.06 747.516L1401.45 739.898ZM1401.45 663.492V610.055L1409.06 602.438L1416.68 610.055V663.492L1409.06 671.109L1401.45 663.492ZM1412.93 751.383L1420.55 743.648H1473.98L1481.6 751.383L1473.98 759H1420.55L1412.93 751.383ZM1412.93 674.977L1420.55 667.359H1473.98L1481.6 674.977L1473.98 682.594H1420.55L1412.93 674.977ZM1412.93 598.57L1420.55 590.953H1473.98L1481.6 598.57L1473.98 606.188H1420.55L1412.93 598.57ZM1477.85 739.898V686.461L1485.47 678.844L1493.09 686.461V739.898L1485.47 747.516L1477.85 739.898ZM1477.85 663.492V610.055L1485.47 602.438L1493.09 610.055V663.492L1485.47 671.109L1477.85 663.492ZM1521.91 739.898V686.461L1529.53 678.844L1537.15 686.461V739.898L1529.53 747.516L1521.91 739.898ZM1521.91 663.492V610.055L1529.53 602.438L1537.15 610.055V663.492L1529.53 671.109L1521.91 663.492ZM1533.4 751.383L1541.02 743.648H1594.45L1602.07 751.383L1594.45 759H1541.02L1533.4 751.383ZM1533.4 674.977L1541.02 667.359H1594.45L1602.07 674.977L1594.45 682.594H1541.02L1533.4 674.977ZM1533.4 598.57L1541.02 590.953H1594.45L1602.07 598.57L1594.45 606.188H1541.02L1533.4 598.57ZM1598.32 739.898V686.461L1605.94 678.844L1613.55 686.461V739.898L1605.94 747.516L1598.32 739.898ZM1598.32 663.492V610.055L1605.94 602.438L1613.55 610.055V663.492L1605.94 671.109L1598.32 663.492Z" fill="white"/>
<rect x="1165" y="705" width="123" height="54" rx="15" fill="black"/>
<rect x="1716" y="705" width="123" height="54" rx="15" fill="black"/>
<rect x="1716" y="705" width="123" height="54" rx="15" fill="black"/>
<circle cx="1226.5" cy="732.5" r="12.5" fill="#777777"/>
<circle cx="1254" cy="735" r="10" fill="#777777"/>
<circle cx="1199" cy="735" r="10" fill="#777777"/>
<circle cx="1777.5" cy="732.5" r="12.5" fill="#777777"/>
<circle cx="1805" cy="735" r="10" fill="#777777"/>
<circle cx="1750" cy="735" r="10" fill="#777777"/>
<circle cx="1777.5" cy="732.5" r="12.5" fill="#777777"/>
<circle cx="1805" cy="735" r="10" fill="#777777"/>
<circle cx="1750" cy="735" r="10" fill="#777777"/>
<circle cx="1500" cy="1470" r="338" stroke="black" stroke-width="2"/>
<rect x="1543.74" y="1603.96" width="109.355" height="270.653" transform="rotate(180 1543.74 1603.96)" fill="black"/>
<path fill-rule="evenodd" clip-rule="evenodd" d="M1189.69 1606.69C1174.73 1572.79 1165.17 1535.98 1162.09 1497.34L1837.91 1497.34C1834.83 1535.98 1825.27 1572.79 1810.31 1606.69L1189.69 1606.69Z" fill="black"/>
<rect x="1319.56" y="1333.31" width="336.266" height="147.629" rx="15" fill="black"/>
<rect x="1319.56" y="1333.31" width="336.266" height="147.629" rx="15" fill="black"/>
<circle cx="1487.7" cy="1408.49" r="34.1734" fill="#777777"/>
<circle cx="1562.88" cy="1415.32" r="27.3387" fill="#777777"/>
<circle cx="1412.52" cy="1415.32" r="27.3387" fill="#777777"/>
<circle cx="1487.7" cy="1408.49" r="34.1734" fill="#777777"/>
<circle cx="1562.88" cy="1415.32" r="27.3387" fill="#777777"/>
<circle cx="1412.52" cy="1415.32" r="27.3387" fill="#777777"/>
<path d="M1370.34 1127.35C1371.08 1127.71 1371.98 1127.41 1372.35 1126.66L1378.31 1114.55C1378.67 1113.81 1378.37 1112.91 1377.62 1112.54C1376.88 1112.17 1375.98 1112.48 1375.61 1113.22L1370.32 1123.99L1359.55 1118.69C1358.81 1118.33 1357.91 1118.63 1357.54 1119.38C1357.17 1120.12 1357.48 1121.02 1358.22 1121.39L1370.34 1127.35ZM1274.58 847.483L1369.58 1126.48L1372.42 1125.52L1277.42 846.517L1274.58 847.483Z" fill="#041550"/>
<path d="M515.782 2016V1963.64H526.853V2006.87H549.301V2016H515.782ZM556.633 2016V1963.64H591.917V1972.76H567.704V1985.24H590.102V1994.37H567.704V2006.87H592.02V2016H556.633ZM619.282 2016H600.719V1963.64H619.435C624.702 1963.64 629.236 1964.68 633.037 1966.78C636.838 1968.86 639.762 1971.85 641.807 1975.76C643.87 1979.66 644.901 1984.33 644.901 1989.77C644.901 1995.22 643.87 1999.91 641.807 2003.83C639.762 2007.75 636.821 2010.76 632.986 2012.86C629.168 2014.95 624.6 2016 619.282 2016ZM611.79 2006.51H618.821C622.094 2006.51 624.847 2005.93 627.08 2004.78C629.33 2003.6 631.017 2001.78 632.142 1999.33C633.284 1996.86 633.855 1993.67 633.855 1989.77C633.855 1985.9 633.284 1982.74 632.142 1980.28C631.017 1977.83 629.338 1976.02 627.105 1974.86C624.873 1973.7 622.12 1973.12 618.847 1973.12H611.79V2006.51ZM680.837 1963.64V2016H669.766V1963.64H680.837ZM733.744 1963.64V2016H724.181L701.4 1983.04H701.017V2016H689.946V1963.64H699.662L722.264 1996.57H722.724V1963.64H733.744ZM742.891 2016V1963.64H777.561V1972.76H753.962V1985.24H775.26V1994.37H753.962V2016H742.891ZM785.008 2016V1963.64H805.667C809.622 1963.64 812.997 1964.34 815.792 1965.76C818.605 1967.16 820.744 1969.14 822.21 1971.72C823.693 1974.27 824.434 1977.28 824.434 1980.74C824.434 1984.22 823.684 1987.21 822.184 1989.72C820.684 1992.2 818.511 1994.11 815.664 1995.44C812.835 1996.77 809.409 1997.44 805.386 1997.44H791.554V1988.54H803.596C805.71 1988.54 807.466 1988.25 808.863 1987.67C810.261 1987.09 811.301 1986.22 811.983 1985.06C812.681 1983.9 813.031 1982.46 813.031 1980.74C813.031 1979 812.681 1977.54 811.983 1976.34C811.301 1975.15 810.252 1974.25 808.838 1973.63C807.44 1973 805.676 1972.69 803.545 1972.69H796.079V2016H785.008ZM813.287 1992.17L826.301 2016H814.079L801.346 1992.17H813.287ZM841.284 2016H829.42L847.497 1963.64H861.764L879.815 2016H867.951L854.835 1975.6H854.426L841.284 2016ZM840.542 1995.42H868.565V2004.06H840.542V1995.42ZM886.118 2016V1963.64H906.777C910.731 1963.64 914.106 1964.34 916.902 1965.76C919.714 1967.16 921.853 1969.14 923.319 1971.72C924.802 1974.27 925.544 1977.28 925.544 1980.74C925.544 1984.22 924.794 1987.21 923.294 1989.72C921.794 1992.2 919.62 1994.11 916.774 1995.44C913.944 1996.77 910.518 1997.44 906.495 1997.44H892.663V1988.54H904.706C906.819 1988.54 908.575 1988.25 909.973 1987.67C911.37 1987.09 912.41 1986.22 913.092 1985.06C913.791 1983.9 914.14 1982.46 914.14 1980.74C914.14 1979 913.791 1977.54 913.092 1976.34C912.41 1975.15 911.362 1974.25 909.947 1973.63C908.549 1973 906.785 1972.69 904.654 1972.69H897.189V2016H886.118ZM914.396 1992.17L927.41 2016H915.189L902.456 1992.17H914.396ZM933.368 2016V1963.64H954.027C957.981 1963.64 961.356 1964.34 964.152 1965.76C966.964 1967.16 969.103 1969.14 970.569 1971.72C972.052 1974.27 972.794 1977.28 972.794 1980.74C972.794 1984.22 972.044 1987.21 970.544 1989.72C969.044 1992.2 966.87 1994.11 964.024 1995.44C961.194 1996.77 957.768 1997.44 953.745 1997.44H939.913V1988.54H951.956C954.069 1988.54 955.825 1988.25 957.223 1987.67C958.62 1987.09 959.66 1986.22 960.342 1985.06C961.041 1983.9 961.39 1982.46 961.39 1980.74C961.39 1979 961.041 1977.54 960.342 1976.34C959.66 1975.15 958.612 1974.25 957.197 1973.63C955.799 1973 954.035 1972.69 951.904 1972.69H944.439V2016H933.368ZM961.646 1992.17L974.66 2016H962.439L949.706 1992.17H961.646ZM1028.74 1989.82C1028.74 1995.53 1027.65 2000.39 1025.49 2004.39C1023.34 2008.4 1020.41 2011.46 1016.69 2013.57C1013 2015.67 1008.84 2016.72 1004.22 2016.72C999.564 2016.72 995.387 2015.66 991.689 2013.55C987.99 2011.43 985.066 2008.37 982.919 2004.37C980.771 2000.36 979.697 1995.51 979.697 1989.82C979.697 1984.11 980.771 1979.25 982.919 1975.24C985.066 1971.24 987.99 1968.19 991.689 1966.09C995.387 1963.98 999.564 1962.92 1004.22 1962.92C1008.84 1962.92 1013 1963.98 1016.69 1966.09C1020.41 1968.19 1023.34 1971.24 1025.49 1975.24C1027.65 1979.25 1028.74 1984.11 1028.74 1989.82ZM1017.51 1989.82C1017.51 1986.12 1016.96 1983 1015.85 1980.46C1014.76 1977.92 1013.22 1975.99 1011.22 1974.68C1009.23 1973.37 1006.89 1972.71 1004.22 1972.71C1001.54 1972.71 999.206 1973.37 997.211 1974.68C995.217 1975.99 993.666 1977.92 992.558 1980.46C991.467 1983 990.922 1986.12 990.922 1989.82C990.922 1993.52 991.467 1996.64 992.558 1999.18C993.666 2001.72 995.217 2003.64 997.211 2004.95C999.206 2006.27 1001.54 2006.92 1004.22 2006.92C1006.89 2006.92 1009.23 2006.27 1011.22 2004.95C1013.22 2003.64 1014.76 2001.72 1015.85 1999.18C1016.96 1996.64 1017.51 1993.52 1017.51 1989.82ZM1057.9 1963.64H1068.85V2000.15C1068.85 2003.52 1068.09 2006.45 1066.57 2008.94C1065.07 2011.43 1062.98 2013.35 1060.31 2014.7C1057.63 2016.04 1054.52 2016.72 1050.97 2016.72C1047.82 2016.72 1044.96 2016.16 1042.38 2015.05C1039.83 2013.93 1037.8 2012.22 1036.3 2009.94C1034.8 2007.64 1034.06 2004.75 1034.07 2001.27H1045.09C1045.13 2002.65 1045.41 2003.84 1045.94 2004.83C1046.48 2005.8 1047.22 2006.55 1048.16 2007.08C1049.12 2007.59 1050.24 2007.84 1051.54 2007.84C1052.9 2007.84 1054.05 2007.55 1054.99 2006.97C1055.94 2006.38 1056.67 2005.51 1057.16 2004.37C1057.66 2003.22 1057.9 2001.82 1057.9 2000.15V1963.64ZM1126.12 1989.82C1126.12 1995.53 1125.04 2000.39 1122.87 2004.39C1120.72 2008.4 1117.79 2011.46 1114.08 2013.57C1110.38 2015.67 1106.22 2016.72 1101.6 2016.72C1096.95 2016.72 1092.77 2015.66 1089.07 2013.55C1085.37 2011.43 1082.45 2008.37 1080.3 2004.37C1078.15 2000.36 1077.08 1995.51 1077.08 1989.82C1077.08 1984.11 1078.15 1979.25 1080.3 1975.24C1082.45 1971.24 1085.37 1968.19 1089.07 1966.09C1092.77 1963.98 1096.95 1962.92 1101.6 1962.92C1106.22 1962.92 1110.38 1963.98 1114.08 1966.09C1117.79 1968.19 1120.72 1971.24 1122.87 1975.24C1125.04 1979.25 1126.12 1984.11 1126.12 1989.82ZM1114.9 1989.82C1114.9 1986.12 1114.34 1983 1113.23 1980.46C1112.14 1977.92 1110.6 1975.99 1108.61 1974.68C1106.61 1973.37 1104.28 1972.71 1101.6 1972.71C1098.92 1972.71 1096.59 1973.37 1094.59 1974.68C1092.6 1975.99 1091.05 1977.92 1089.94 1980.46C1088.85 1983 1088.3 1986.12 1088.3 1989.82C1088.3 1993.52 1088.85 1996.64 1089.94 1999.18C1091.05 2001.72 1092.6 2003.64 1094.59 2004.95C1096.59 2006.27 1098.92 2006.92 1101.6 2006.92C1104.28 2006.92 1106.61 2006.27 1108.61 2004.95C1110.6 2003.64 1112.14 2001.72 1113.23 1999.18C1114.34 1996.64 1114.9 1993.52 1114.9 1989.82Z" fill="black"/>
<path d="M1550.81 1978.7C1550.6 1976.63 1549.73 1975.03 1548.18 1973.89C1546.62 1972.75 1544.52 1972.18 1541.86 1972.18C1540.05 1972.18 1538.53 1972.43 1537.28 1972.94C1536.04 1973.44 1535.08 1974.13 1534.42 1975.01C1533.77 1975.9 1533.45 1976.91 1533.45 1978.03C1533.41 1978.97 1533.61 1979.79 1534.04 1980.49C1534.48 1981.18 1535.08 1981.79 1535.85 1982.3C1536.62 1982.8 1537.5 1983.23 1538.51 1983.61C1539.52 1983.96 1540.59 1984.27 1541.73 1984.53L1546.44 1985.65C1548.72 1986.16 1550.82 1986.84 1552.73 1987.7C1554.64 1988.55 1556.29 1989.6 1557.69 1990.84C1559.08 1992.09 1560.17 1993.55 1560.93 1995.24C1561.72 1996.93 1562.12 1998.86 1562.14 2001.04C1562.12 2004.25 1561.3 2007.03 1559.68 2009.38C1558.08 2011.71 1555.76 2013.53 1552.73 2014.82C1549.71 2016.1 1546.07 2016.74 1541.81 2016.74C1537.58 2016.74 1533.9 2016.09 1530.76 2014.8C1527.64 2013.5 1525.21 2011.59 1523.45 2009.05C1521.71 2006.49 1520.8 2003.33 1520.72 1999.56H1531.43C1531.55 2001.32 1532.05 2002.78 1532.94 2003.96C1533.84 2005.12 1535.04 2005.99 1536.54 2006.59C1538.06 2007.17 1539.77 2007.46 1541.68 2007.46C1543.56 2007.46 1545.18 2007.19 1546.56 2006.64C1547.96 2006.1 1549.04 2005.34 1549.81 2004.37C1550.58 2003.39 1550.96 2002.28 1550.96 2001.02C1550.96 1999.84 1550.61 1998.85 1549.91 1998.05C1549.23 1997.25 1548.23 1996.57 1546.9 1996.01C1545.58 1995.44 1543.97 1994.93 1542.06 1994.47L1536.36 1993.04C1531.95 1991.97 1528.46 1990.29 1525.91 1988C1523.35 1985.72 1522.08 1982.64 1522.1 1978.77C1522.08 1975.6 1522.92 1972.83 1524.63 1970.46C1526.35 1968.09 1528.71 1966.24 1531.71 1964.91C1534.71 1963.59 1538.12 1962.92 1541.94 1962.92C1545.82 1962.92 1549.22 1963.59 1552.11 1964.91C1555.03 1966.24 1557.29 1968.09 1558.91 1970.46C1560.53 1972.83 1561.37 1975.58 1561.42 1978.7H1550.81ZM1569.58 2016V1963.64H1604.87V1972.76H1580.65V1985.24H1603.05V1994.37H1580.65V2006.87H1604.97V2016H1569.58ZM1657.47 1963.64V2016H1647.9L1625.12 1983.04H1624.74V2016H1613.67V1963.64H1623.38L1645.99 1996.57H1646.45V1963.64H1657.47ZM1695.02 1978.7C1694.82 1976.63 1693.94 1975.03 1692.39 1973.89C1690.84 1972.75 1688.73 1972.18 1686.07 1972.18C1684.26 1972.18 1682.74 1972.43 1681.49 1972.94C1680.25 1973.44 1679.3 1974.13 1678.63 1975.01C1677.98 1975.9 1677.66 1976.91 1677.66 1978.03C1677.63 1978.97 1677.82 1979.79 1678.25 1980.49C1678.69 1981.18 1679.3 1981.79 1680.06 1982.3C1680.83 1982.8 1681.72 1983.23 1682.72 1983.61C1683.73 1983.96 1684.8 1984.27 1685.94 1984.53L1690.65 1985.65C1692.93 1986.16 1695.03 1986.84 1696.94 1987.7C1698.85 1988.55 1700.5 1989.6 1701.9 1990.84C1703.3 1992.09 1704.38 1993.55 1705.14 1995.24C1705.93 1996.93 1706.33 1998.86 1706.35 2001.04C1706.33 2004.25 1705.51 2007.03 1703.89 2009.38C1702.29 2011.71 1699.97 2013.53 1696.94 2014.82C1693.92 2016.1 1690.28 2016.74 1686.02 2016.74C1681.79 2016.74 1678.11 2016.09 1674.97 2014.8C1671.86 2013.5 1669.42 2011.59 1667.66 2009.05C1665.92 2006.49 1665.01 2003.33 1664.93 1999.56H1675.64C1675.76 2001.32 1676.26 2002.78 1677.15 2003.96C1678.05 2005.12 1679.25 2005.99 1680.75 2006.59C1682.27 2007.17 1683.98 2007.46 1685.89 2007.46C1687.77 2007.46 1689.39 2007.19 1690.78 2006.64C1692.17 2006.1 1693.26 2005.34 1694.02 2004.37C1694.79 2003.39 1695.17 2002.28 1695.17 2001.02C1695.17 1999.84 1694.82 1998.85 1694.12 1998.05C1693.44 1997.25 1692.44 1996.57 1691.11 1996.01C1689.8 1995.44 1688.18 1994.93 1686.28 1994.47L1680.57 1993.04C1676.16 1991.97 1672.67 1990.29 1670.12 1988C1667.56 1985.72 1666.29 1982.64 1666.31 1978.77C1666.29 1975.6 1667.13 1972.83 1668.84 1970.46C1670.56 1968.09 1672.92 1966.24 1675.92 1964.91C1678.92 1963.59 1682.33 1962.92 1686.15 1962.92C1690.03 1962.92 1693.43 1963.59 1696.32 1964.91C1699.24 1966.24 1701.51 1968.09 1703.12 1970.46C1704.74 1972.83 1705.58 1975.58 1705.63 1978.7H1695.02ZM1761.91 1989.82C1761.91 1995.53 1760.83 2000.39 1758.67 2004.39C1756.52 2008.4 1753.59 2011.46 1749.87 2013.57C1746.17 2015.67 1742.01 2016.72 1737.39 2016.72C1732.74 2016.72 1728.56 2015.66 1724.86 2013.55C1721.17 2011.43 1718.24 2008.37 1716.09 2004.37C1713.95 2000.36 1712.87 1995.51 1712.87 1989.82C1712.87 1984.11 1713.95 1979.25 1716.09 1975.24C1718.24 1971.24 1721.17 1968.19 1724.86 1966.09C1728.56 1963.98 1732.74 1962.92 1737.39 1962.92C1742.01 1962.92 1746.17 1963.98 1749.87 1966.09C1753.59 1968.19 1756.52 1971.24 1758.67 1975.24C1760.83 1979.25 1761.91 1984.11 1761.91 1989.82ZM1750.69 1989.82C1750.69 1986.12 1750.13 1983 1749.03 1980.46C1747.94 1977.92 1746.39 1975.99 1744.4 1974.68C1742.4 1973.37 1740.07 1972.71 1737.39 1972.71C1734.72 1972.71 1732.38 1973.37 1730.39 1974.68C1728.39 1975.99 1726.84 1977.92 1725.73 1980.46C1724.64 1983 1724.1 1986.12 1724.1 1989.82C1724.1 1993.52 1724.64 1996.64 1725.73 1999.18C1726.84 2001.72 1728.39 2003.64 1730.39 2004.95C1732.38 2006.27 1734.72 2006.92 1737.39 2006.92C1740.07 2006.92 1742.4 2006.27 1744.4 2004.95C1746.39 2003.64 1747.94 2001.72 1749.03 1999.18C1750.13 1996.64 1750.69 1993.52 1750.69 1989.82ZM1770.11 2016V1963.64H1790.77C1794.73 1963.64 1798.1 1964.34 1800.9 1965.76C1803.71 1967.16 1805.85 1969.14 1807.32 1971.72C1808.8 1974.27 1809.54 1977.28 1809.54 1980.74C1809.54 1984.22 1808.79 1987.21 1807.29 1989.72C1805.79 1992.2 1803.62 1994.11 1800.77 1995.44C1797.94 1996.77 1794.51 1997.44 1790.49 1997.44H1776.66V1988.54H1788.7C1790.82 1988.54 1792.57 1988.25 1793.97 1987.67C1795.37 1987.09 1796.41 1986.22 1797.09 1985.06C1797.79 1983.9 1798.14 1982.46 1798.14 1980.74C1798.14 1979 1797.79 1977.54 1797.09 1976.34C1796.41 1975.15 1795.36 1974.25 1793.94 1973.63C1792.55 1973 1790.78 1972.69 1788.65 1972.69H1781.18V2016H1770.11ZM1798.39 1992.17L1811.41 2016H1799.18L1786.45 1992.17H1798.39ZM1882.15 1989.82C1882.15 1995.53 1881.06 2000.39 1878.9 2004.39C1876.75 2008.4 1873.82 2011.46 1870.1 2013.57C1866.41 2015.67 1862.25 2016.72 1857.63 2016.72C1852.97 2016.72 1848.8 2015.66 1845.1 2013.55C1841.4 2011.43 1838.48 2008.37 1836.33 2004.37C1834.18 2000.36 1833.11 1995.51 1833.11 1989.82C1833.11 1984.11 1834.18 1979.25 1836.33 1975.24C1838.48 1971.24 1841.4 1968.19 1845.1 1966.09C1848.8 1963.98 1852.97 1962.92 1857.63 1962.92C1862.25 1962.92 1866.41 1963.98 1870.1 1966.09C1873.82 1968.19 1876.75 1971.24 1878.9 1975.24C1881.06 1979.25 1882.15 1984.11 1882.15 1989.82ZM1870.92 1989.82C1870.92 1986.12 1870.37 1983 1869.26 1980.46C1868.17 1977.92 1866.63 1975.99 1864.63 1974.68C1862.64 1973.37 1860.3 1972.71 1857.63 1972.71C1854.95 1972.71 1852.62 1973.37 1850.62 1974.68C1848.63 1975.99 1847.08 1977.92 1845.97 1980.46C1844.88 1983 1844.33 1986.12 1844.33 1989.82C1844.33 1993.52 1844.88 1996.64 1845.97 1999.18C1847.08 2001.72 1848.63 2003.64 1850.62 2004.95C1852.62 2006.27 1854.95 2006.92 1857.63 2006.92C1860.3 2006.92 1862.64 2006.27 1864.63 2004.95C1866.63 2003.64 1868.17 2001.72 1869.26 1999.18C1870.37 1996.64 1870.92 1993.52 1870.92 1989.82ZM1853.72 1958.57L1859.14 1946.94H1869.21L1861.41 1958.57H1853.72ZM1890.35 2016V1963.64H1911.01C1914.98 1963.64 1918.36 1964.39 1921.16 1965.91C1923.95 1967.41 1926.08 1969.5 1927.55 1972.18C1929.03 1974.84 1929.77 1977.9 1929.77 1981.38C1929.77 1984.86 1929.02 1987.93 1927.52 1990.59C1926.02 1993.24 1923.85 1995.32 1921 1996.8C1918.17 1998.28 1914.75 1999.02 1910.73 1999.02H1897.56V1990.15H1908.94C1911.07 1990.15 1912.82 1989.78 1914.2 1989.05C1915.6 1988.3 1916.64 1987.27 1917.32 1985.96C1918.02 1984.63 1918.37 1983.1 1918.37 1981.38C1918.37 1979.64 1918.02 1978.12 1917.32 1976.83C1916.64 1975.52 1915.6 1974.5 1914.2 1973.79C1912.81 1973.05 1911.03 1972.69 1908.88 1972.69H1901.42V2016H1890.35ZM1934.97 1972.76V1963.64H1977.98V1972.76H1961.95V2016H1951V1972.76H1934.97ZM1996.13 1963.64V2016H1985.06V1963.64H1996.13ZM2051.44 1981.97H2040.24C2040.04 1980.52 2039.62 1979.23 2038.99 1978.11C2038.36 1976.97 2037.55 1975.99 2036.56 1975.19C2035.57 1974.39 2034.43 1973.78 2033.13 1973.35C2031.86 1972.93 2030.47 1972.71 2028.97 1972.71C2026.26 1972.71 2023.89 1973.39 2021.88 1974.73C2019.87 1976.06 2018.31 1978.01 2017.2 1980.56C2016.1 1983.1 2015.54 1986.19 2015.54 1989.82C2015.54 1993.55 2016.1 1996.69 2017.2 1999.23C2018.33 2001.77 2019.9 2003.68 2021.91 2004.98C2023.92 2006.28 2026.25 2006.92 2028.89 2006.92C2030.37 2006.92 2031.74 2006.73 2033.01 2006.34C2034.28 2005.94 2035.42 2005.37 2036.41 2004.62C2037.39 2003.86 2038.21 2002.93 2038.86 2001.84C2039.53 2000.74 2039.99 1999.5 2040.24 1998.1L2051.44 1998.15C2051.15 2000.56 2050.43 2002.88 2049.27 2005.11C2048.13 2007.32 2046.58 2009.31 2044.64 2011.07C2042.71 2012.8 2040.41 2014.18 2037.74 2015.21C2035.08 2016.21 2032.07 2016.72 2028.71 2016.72C2024.04 2016.72 2019.86 2015.66 2016.18 2013.55C2012.52 2011.43 2009.62 2008.37 2007.49 2004.37C2005.38 2000.36 2004.32 1995.51 2004.32 1989.82C2004.32 1984.11 2005.39 1979.25 2007.54 1975.24C2009.69 1971.24 2012.6 1968.19 2016.28 1966.09C2019.97 1963.98 2024.11 1962.92 2028.71 1962.92C2031.74 1962.92 2034.56 1963.35 2037.15 1964.2C2039.76 1965.05 2042.07 1966.3 2044.08 1967.93C2046.09 1969.55 2047.72 1971.54 2048.99 1973.89C2050.26 1976.24 2051.08 1978.93 2051.44 1981.97ZM2107.5 1989.82C2107.5 1995.53 2106.42 2000.39 2104.25 2004.39C2102.1 2008.4 2099.17 2011.46 2095.46 2013.57C2091.76 2015.67 2087.6 2016.72 2082.98 2016.72C2078.33 2016.72 2074.15 2015.66 2070.45 2013.55C2066.75 2011.43 2063.83 2008.37 2061.68 2004.37C2059.53 2000.36 2058.46 1995.51 2058.46 1989.82C2058.46 1984.11 2059.53 1979.25 2061.68 1975.24C2063.83 1971.24 2066.75 1968.19 2070.45 1966.09C2074.15 1963.98 2078.33 1962.92 2082.98 1962.92C2087.6 1962.92 2091.76 1963.98 2095.46 1966.09C2099.17 1968.19 2102.1 1971.24 2104.25 1975.24C2106.42 1979.25 2107.5 1984.11 2107.5 1989.82ZM2096.27 1989.82C2096.27 1986.12 2095.72 1983 2094.61 1980.46C2093.52 1977.92 2091.98 1975.99 2089.98 1974.68C2087.99 1973.37 2085.65 1972.71 2082.98 1972.71C2080.3 1972.71 2077.97 1973.37 2075.97 1974.68C2073.98 1975.99 2072.43 1977.92 2071.32 1980.46C2070.23 1983 2069.68 1986.12 2069.68 1989.82C2069.68 1993.52 2070.23 1996.64 2071.32 1999.18C2072.43 2001.72 2073.98 2003.64 2075.97 2004.95C2077.97 2006.27 2080.3 2006.92 2082.98 2006.92C2085.65 2006.92 2087.99 2006.27 2089.98 2004.95C2091.98 2003.64 2093.52 2001.72 2094.61 1999.18C2095.72 1996.64 2096.27 1993.52 2096.27 1989.82Z" fill="black"/>
<path d="M927.5 1889.99C927.497 1890.82 928.165 1891.5 928.994 1891.5L942.494 1891.56C943.322 1891.56 943.996 1890.89 944 1890.06C944.003 1889.24 943.335 1888.56 942.506 1888.56L930.506 1888.51L930.557 1876.51C930.561 1875.68 929.892 1875 929.064 1875C928.235 1875 927.561 1875.67 927.557 1876.49L927.5 1889.99ZM1401.94 1418.93L927.944 1888.93L930.056 1891.07L1404.06 1421.07L1401.94 1418.93Z" fill="black"/>
<path d="M1904.9 1891.5C1905.73 1891.55 1906.44 1890.93 1906.5 1890.1L1907.39 1876.63C1907.44 1875.8 1906.82 1875.09 1905.99 1875.03C1905.16 1874.98 1904.45 1875.6 1904.4 1876.43L1903.6 1888.4L1891.63 1887.61C1890.8 1887.56 1890.09 1888.18 1890.03 1889.01C1889.98 1889.84 1890.6 1890.55 1891.43 1890.6L1904.9 1891.5ZM1487.87 1415.99L1903.87 1890.99L1906.13 1889.01L1490.13 1414.01L1487.87 1415.99Z" fill="black"/>
</svg>
