<?xml version="1.0" encoding="utf-8"?>
<!-- Generator: Adobe Illustrator 26.3.1, SVG Export Plug-In . SVG Version: 6.00 Build 0)  -->
<svg version="1.1" id="Capa_1" xmlns="http://www.w3.org/2000/svg" xmlns:xlink="http://www.w3.org/1999/xlink" x="0px" y="0px"
	 viewBox="0 0 595.28 841.89" style="enable-background:new 0 0 595.28 841.89;" xml:space="preserve">
<style type="text/css">
	.st0{fill:#FFFFFF;}
	.st1{font-family:'BungeeLayers-Regular';}
	.st2{font-size:19.7082px;}
	.st3{fill:#FF6C0E;}
	.st4{font-family:'Algerian';}
	.st5{font-size:211.9312px;}
	.st6{fill:none;}
	.st7{font-size:13.1246px;}
</style>
<text transform="matrix(1 0 0 1 157.0231 331.7241)"><tspan x="0" y="0" class="st0 st1 st2">CITYCHI</tspan><tspan x="90.38" y="0" class="st0 st1 st2">P</tspan><tspan x="103.43" y="0" class="st0 st1 st2">.PE</tspan></text>
<text transform="matrix(0.9791 0 0 1 154.8481 290.0173)" class="st3 st4 st5">c</text>
<rect x="71.01" y="386.1" class="st6" width="20.2" height="0"/>
<text transform="matrix(1 0 0 1 112.1099 348.9029)" class="st3 st1 st7">L</text>
<g>
	<g>
		<path class="st3" d="M122.28,347.25c0-1.43,1.34-2.13,4.63-2.39c-0.04-0.87-0.46-1.6-1.69-1.6c-0.83,0-1.64,0.39-2.23,0.76
			l-0.43-0.73c0.66-0.42,1.73-0.92,2.85-0.92c1.75,0,2.6,1.04,2.6,2.62v3.91h-0.91l-0.09-0.87h-0.04c-0.7,0.55-1.61,1.02-2.51,1.02
			C123.27,349.06,122.28,348.39,122.28,347.25z M126.91,347.24v-1.65c-2.73,0.21-3.56,0.75-3.56,1.59c0,0.72,0.66,1.01,1.39,1.01
			C125.47,348.18,126.18,347.84,126.91,347.24z"/>
		<path class="st3" d="M138.03,345.73c0-2.14,1.63-3.36,3.56-3.36c1.04,0,1.8,0.42,2.32,0.93l-0.54,0.7
			c-0.52-0.45-1.08-0.72-1.75-0.72c-1.47,0-2.48,0.98-2.48,2.45c0,1.46,1,2.43,2.45,2.43c0.79,0,1.44-0.35,1.97-0.8l0.49,0.71
			c-0.71,0.63-1.59,1-2.53,1C139.53,349.06,138.03,347.84,138.03,345.73z"/>
		<path class="st3" d="M148.99,343.4h-2.95v-0.88h4.04v6.38h-1.09V343.4z M148.56,340.35c0-0.5,0.37-0.84,0.87-0.84
			c0.5,0,0.87,0.34,0.87,0.84c0,0.51-0.37,0.84-0.87,0.84C148.92,341.19,148.56,340.86,148.56,340.35z"/>
		<path class="st3" d="M153.74,346.49v-3.96h1.09v3.82c0,1.19,0.42,1.77,1.47,1.77c0.73,0,1.27-0.34,1.98-1.17v-4.42h1.09v6.38
			h-0.91l-0.09-1.12h-0.05c-0.64,0.75-1.39,1.27-2.38,1.27C154.44,349.06,153.74,348.17,153.74,346.49z"/>
		<path class="st3" d="M161.39,345.73c0-2.07,1.38-3.36,2.89-3.36c0.76,0,1.35,0.3,1.92,0.81h0.03l-0.05-1.17v-2.45h1.09v9.34h-0.89
			l-0.09-0.84h-0.04c-0.52,0.54-1.29,1-2.09,1C162.49,349.06,161.39,347.85,161.39,345.73z M166.17,347.2v-3.18
			c-0.58-0.54-1.12-0.73-1.67-0.73c-1.1,0-1.99,0.97-1.99,2.43c0,1.52,0.71,2.43,1.88,2.43C165.01,348.14,165.6,347.83,166.17,347.2
			z"/>
		<path class="st3" d="M169.53,347.25c0-1.43,1.34-2.13,4.63-2.39c-0.04-0.87-0.46-1.6-1.69-1.6c-0.83,0-1.64,0.39-2.23,0.76
			l-0.43-0.73c0.66-0.42,1.73-0.92,2.85-0.92c1.75,0,2.6,1.04,2.6,2.62v3.91h-0.91l-0.09-0.87h-0.04c-0.7,0.55-1.61,1.02-2.51,1.02
			C170.51,349.06,169.53,348.39,169.53,347.25z M174.16,347.24v-1.65c-2.73,0.21-3.56,0.75-3.56,1.59c0,0.72,0.66,1.01,1.39,1.01
			C172.72,348.18,173.43,347.84,174.16,347.24z"/>
		<path class="st3" d="M177.14,345.73c0-2.07,1.38-3.36,2.89-3.36c0.76,0,1.35,0.3,1.92,0.81h0.03l-0.05-1.17v-2.45h1.09v9.34h-0.89
			l-0.09-0.84h-0.04c-0.52,0.54-1.29,1-2.09,1C178.24,349.06,177.14,347.85,177.14,345.73z M181.92,347.2v-3.18
			c-0.58-0.54-1.12-0.73-1.67-0.73c-1.1,0-1.99,0.97-1.99,2.43c0,1.52,0.71,2.43,1.88,2.43
			C180.76,348.14,181.35,347.83,181.92,347.2z"/>
		<path class="st3" d="M192.89,345.73c0-2.07,1.38-3.36,2.89-3.36c0.76,0,1.35,0.3,1.92,0.81h0.03l-0.05-1.17v-2.45h1.09v9.34h-0.89
			l-0.09-0.84h-0.04c-0.52,0.54-1.29,1-2.09,1C193.99,349.06,192.89,347.85,192.89,345.73z M197.67,347.2v-3.18
			c-0.58-0.54-1.12-0.73-1.67-0.73c-1.1,0-1.99,0.97-1.99,2.43c0,1.52,0.71,2.43,1.88,2.43C196.51,348.14,197.1,347.83,197.67,347.2
			z"/>
		<path class="st3" d="M200.87,345.7c0-2.07,1.55-3.33,3.25-3.33c1.84,0,2.91,1.19,2.91,2.99c0,0.25-0.03,0.49-0.05,0.66h-5.39
			v-0.84h4.75l-0.28,0.3c0-1.51-0.75-2.26-1.92-2.26c-1.18,0-2.2,0.89-2.2,2.48c0,1.65,1.08,2.49,2.49,2.49
			c0.76,0,1.36-0.24,1.94-0.6l0.39,0.71c-0.63,0.42-1.44,0.76-2.47,0.76C202.39,349.06,200.87,347.83,200.87,345.7z"/>
		<path class="st3" d="M211.08,346.76v-6.32h-2.26v-0.88h3.35v7.28c0,0.92,0.5,1.31,1.26,1.31c0.37,0,0.76-0.09,1.19-0.29l0.28,0.81
			c-0.59,0.25-1.01,0.38-1.71,0.38C211.83,349.06,211.08,348.27,211.08,346.76z"/>
		<path class="st3" d="M224.65,345.73c0-2.14,1.63-3.36,3.56-3.36c1.04,0,1.8,0.42,2.32,0.93l-0.54,0.7
			c-0.52-0.45-1.08-0.72-1.75-0.72c-1.47,0-2.48,0.98-2.48,2.45c0,1.46,1,2.43,2.45,2.43c0.79,0,1.44-0.35,1.97-0.8l0.49,0.71
			c-0.71,0.63-1.59,1-2.53,1C226.15,349.06,224.65,347.84,224.65,345.73z"/>
		<path class="st3" d="M232.7,339.56h1.09v2.55l-0.07,1.51h0.04c0.64-0.71,1.39-1.25,2.38-1.25c1.51,0,2.2,0.89,2.2,2.57v3.96h-1.09
			v-3.82c0-1.21-0.42-1.77-1.46-1.77c-0.76,0-1.27,0.38-2.01,1.14v4.45h-1.09V339.56z"/>
		<path class="st3" d="M243.48,343.4h-2.95v-0.88h4.04v6.38h-1.09V343.4z M243.05,340.35c0-0.5,0.37-0.84,0.87-0.84
			c0.5,0,0.87,0.34,0.87,0.84c0,0.51-0.37,0.84-0.87,0.84C243.42,341.19,243.05,340.86,243.05,340.35z"/>
		<path class="st3" d="M248.45,342.53h0.89l0.09,0.81h0.04c0.59-0.56,1.43-0.97,2.2-0.97c1.72,0,2.64,1.27,2.64,3.25
			c0,2.17-1.36,3.44-2.9,3.44c-0.59,0-1.33-0.3-1.9-0.83h-0.03l0.05,1.21v2.15h-1.09V342.53z M253.2,345.62
			c0-1.4-0.52-2.34-1.8-2.34c-0.56,0-1.22,0.29-1.86,0.94v3.18c0.59,0.54,1.26,0.73,1.69,0.73
			C252.36,348.14,253.2,347.2,253.2,345.62z"/>
		<path class="st3" d="M264.02,347.25c0-1.43,1.34-2.13,4.63-2.39c-0.04-0.87-0.46-1.6-1.69-1.6c-0.83,0-1.64,0.39-2.23,0.76
			l-0.43-0.73c0.66-0.42,1.73-0.92,2.85-0.92c1.75,0,2.6,1.04,2.6,2.62v3.91h-0.91l-0.09-0.87h-0.04c-0.7,0.55-1.61,1.02-2.51,1.02
			C265.01,349.06,264.02,348.39,264.02,347.25z M268.66,347.24v-1.65c-2.73,0.21-3.56,0.75-3.56,1.59c0,0.72,0.66,1.01,1.39,1.01
			C267.21,348.18,267.92,347.84,268.66,347.24z"/>
		<path class="st3" d="M279.73,346.49v-3.96h1.09v3.82c0,1.19,0.42,1.77,1.47,1.77c0.73,0,1.27-0.34,1.98-1.17v-4.42h1.09v6.38
			h-0.91l-0.09-1.12h-0.05c-0.64,0.75-1.39,1.27-2.38,1.27C280.43,349.06,279.73,348.17,279.73,346.49z"/>
		<path class="st3" d="M287.82,342.53h0.89l0.09,1.08h0.05c0.67-0.7,1.4-1.23,2.4-1.23c1.51,0,2.2,0.89,2.2,2.57v3.96h-1.09v-3.82
			c0-1.21-0.42-1.77-1.46-1.77c-0.76,0-1.27,0.38-2.01,1.14v4.45h-1.09V342.53z"/>
		<path class="st3" d="M303.4,345.73c0-2.14,1.63-3.36,3.56-3.36c1.04,0,1.8,0.42,2.32,0.93l-0.54,0.7
			c-0.53-0.45-1.08-0.72-1.75-0.72c-1.47,0-2.48,0.98-2.48,2.45c0,1.46,1,2.43,2.45,2.43c0.79,0,1.44-0.35,1.97-0.8l0.49,0.71
			c-0.71,0.63-1.59,1-2.53,1C304.89,349.06,303.4,347.84,303.4,345.73z"/>
		<path class="st3" d="M313.45,346.76v-6.32h-2.26v-0.88h3.35v7.28c0,0.92,0.5,1.31,1.26,1.31c0.37,0,0.76-0.09,1.19-0.29l0.28,0.81
			c-0.59,0.25-1.01,0.38-1.71,0.38C314.2,349.06,313.45,348.27,313.45,346.76z"/>
		<path class="st3" d="M322.23,343.4h-2.95v-0.88h4.04v6.38h-1.09V343.4z M321.8,340.35c0-0.5,0.37-0.84,0.87-0.84
			c0.5,0,0.87,0.34,0.87,0.84c0,0.51-0.37,0.84-0.87,0.84C322.17,341.19,321.8,340.86,321.8,340.35z"/>
		<path class="st3" d="M327.02,345.73c0-2.14,1.63-3.36,3.56-3.36c1.04,0,1.8,0.42,2.32,0.93l-0.54,0.7
			c-0.52-0.45-1.08-0.72-1.75-0.72c-1.47,0-2.48,0.98-2.48,2.45c0,1.46,1,2.43,2.45,2.43c0.79,0,1.44-0.35,1.97-0.8l0.49,0.71
			c-0.71,0.63-1.59,1-2.53,1C328.52,349.06,327.02,347.84,327.02,345.73z"/>
		<path class="st3" d="M335.22,339.56h1.09v6.31h0.05l3.42-3.35h1.25l-4.72,4.65v1.73h-1.09V339.56z M337.68,345.52l0.66-0.71
			l3.04,4.09h-1.21L337.68,345.52z"/>
	</g>
</g>
</svg>
